<svg xmlns="http://www.w3.org/2000/svg" width="64" height="64" viewBox="0 0 64 64">
  <defs>
    <style>
      .cls-1 {
      fill: #FFF;
      fill-rule: evenodd;
      }
    </style>
  </defs>
  <path id="Service_Center" data-name="Service Center" class="cls-1" d="M637,1884c-15.464,0-28-4.03-28-9,0-4.08,8.43-7.52,19.992-8.63,0.729,1.4.055,0.07,0.969,1.89-10.939.82-18.961,3.53-18.961,6.74,0,3.87,11.64,7,26,7s26-3.13,26-7c0-3.22-8.056-5.93-19.031-6.75,0.971-1.77.052-.15,1-1.88,11.581,1.1,20.03,4.55,20.03,8.63C665,1879.97,652.464,1884,637,1884Zm1.078-12.74A1.877,1.877,0,0,1,637,1872a1.92,1.92,0,0,1-1.118-.74A95.586,95.586,0,0,1,625,1859c-2.895-4-5-10.47-5-14a17,17,0,0,1,34,0c0,3.55-2.073,9.98-5,14A97.432,97.432,0,0,1,638.078,1871.26ZM637,1830a15.13,15.13,0,0,0-15,15c0,2.61,2.469,9.5,5,13a88.8,88.8,0,0,0,9.042,10.38,1.629,1.629,0,0,0,.958.65,1.566,1.566,0,0,0,.924-0.65A81.733,81.733,0,0,0,647,1858c2.493-3.56,5-10.46,5-13A15.131,15.131,0,0,0,637,1830Zm0,22a6,6,0,1,1,6-6A5.94,5.94,0,0,1,637,1852Zm0-10a4,4,0,1,0,4,4A4.268,4.268,0,0,0,637,1842Z" transform="translate(-605 -1824)"/>
</svg>
